<?xml version="1.0" ?><svg height="48px" version="1.1" viewBox="0 0 48 48" width="48px" xmlns="http://www.w3.org/2000/svg" xmlns:sketch="http://www.bohemiancoding.com/sketch/ns" xmlns:xlink="http://www.w3.org/1999/xlink"><title/><defs/><g fill="none" fill-rule="evenodd" id="shadow" stroke="none" stroke-width="1"><g id="whatsapp"><path d="M24,48 C37.2548347,48 48,37.2548347 48,24 C48,10.7451653 37.2548347,0 24,0 C10.7451653,0 0,10.7451653 0,24 C0,37.2548347 10.7451653,48 24,48 Z" fill="#57BB63"/><path d="M0.535366913,29.0646331 C2.50947217,38.2545514 9.74544857,45.4905278 18.9353669,47.4646331 L33.245625,33.154375 L36.4475006,24.2693748 C36.4475006,24.2693748 35.4171376,18.8586395 33.2456238,16.3224998 C31.7681794,14.5969727 25.5006256,11.484375 25.5006256,11.484375 L14.9703125,14.6296875 L0.535366913,29.0646331 Z" fill="#000000" fill-opacity="0.400000006"/><path d="M24.0570092,36.9768369 C21.7686646,36.9768369 19.6188554,36.3919754 17.74848,35.3655138 L10.5230769,37.6615385 L12.8784738,30.7135015 C11.6904369,28.7618954 11.0060308,26.4732554 11.0060308,24.02688 C11.0060308,16.8747323 16.8490338,11.0769231 24.0573046,11.0769231 C31.2646892,11.0769231 37.1076923,16.8747323 37.1076923,24.02688 C37.1076923,31.1790277 31.2649846,36.9768369 24.0570092,36.9768369 Z M24.0570092,13.1392985 C18.0063508,13.1392985 13.0846523,18.0234831 13.0846523,24.02688 C13.0846523,26.4091569 13.8612185,28.6153846 15.1744985,30.4104369 L13.8039138,34.4536615 L18.0202338,33.1135015 C19.75296,34.2510277 21.8283323,34.9144615 24.0570092,34.9144615 C30.1067815,34.9144615 35.0293662,30.0305723 35.0293662,24.0271754 C35.0293662,18.0237785 30.1067815,13.1392985 24.0570092,13.1392985 L24.0570092,13.1392985 Z M30.64704,27.0093785 C30.5666954,26.8773415 30.3534277,26.7975877 30.0341169,26.6389662 C29.71392,26.4803446 28.1407015,25.7120492 27.8479754,25.6065969 C27.5543631,25.5008492 27.3408,25.4473846 27.1278277,25.7652185 C26.9148554,26.0830523 26.3016369,26.7975877 26.1146585,27.0093785 C25.9279754,27.2214646 25.7415877,27.2480492 25.4216862,27.0891323 C25.10208,26.9305108 24.0711877,26.5952492 22.8488862,25.5138462 C21.8980431,24.6725908 21.2558769,23.6340185 21.0694892,23.3158892 C20.8828062,22.9983508 21.0496985,22.8267323 21.2097969,22.6687015 C21.3536492,22.5263262 21.5296985,22.2979938 21.6897969,22.1127877 C21.8498954,21.9272862 21.9030646,21.7952492 22.0094031,21.5831631 C22.1163323,21.3713723 22.0628677,21.1861662 21.9828185,21.0269538 C21.9027692,20.8683323 21.2626708,19.3063385 20.9962338,18.6706708 C20.7297969,18.0355938 20.4636554,18.1413415 20.2766769,18.1413415 C20.0899938,18.1413415 19.8767262,18.1147569 19.6634585,18.1147569 C19.4501908,18.1147569 19.1034092,18.1942154 18.8100923,18.5117538 C18.5170708,18.8295877 17.69088,19.5975877 17.69088,21.1592862 C17.69088,22.72128 18.8366769,24.2304 18.9970708,24.4418954 C19.1568738,24.6533908 21.2095015,27.96288 24.4613908,29.23392 C27.7144615,30.5046646 27.7144615,30.0807877 28.3010954,30.0279138 C28.8868431,29.97504 30.1930338,29.2602092 30.4603569,28.5190892 C30.7264985,27.7773785 30.7264985,27.1417108 30.64704,27.0093785 L30.64704,27.0093785 Z" fill="#FFFFFF"/></g></g></svg>